<?xml version="1.0" encoding="UTF-8"?>
<svg version="1.1" xmlns="http://www.w3.org/2000/svg" width="782" height="303">
<path d="M0 0 C3.4697548 3.3171328 5.63029716 6.67336366 7.7578125 10.94140625 C8.10223389 11.61649231 8.44665527 12.29157837 8.80151367 12.98712158 C9.91627429 15.17546911 11.02047145 17.36897319 12.125 19.5625 C12.89736748 21.08143498 13.67064694 22.59990656 14.44482422 24.11791992 C15.96199649 27.09353328 17.47633306 30.0705572 18.98828125 33.04882812 C22.90153953 40.74708587 26.94430934 48.37611647 31 56 C31.54833496 57.03366699 32.09666992 58.06733398 32.66162109 59.13232422 C39.63786881 72.27388938 46.70505919 85.34654772 54.08081055 98.26977539 C58.99675994 106.91641167 63.69661762 115.67331315 68.36132812 124.45703125 C73.80603029 134.69869324 79.40752196 144.8318581 85 155 C85.33 103.85 85.66 52.7 86 0 C89.64850244 1.21616748 90.10897043 2.61028972 91.80331421 5.91322327 C92.31832993 6.95391212 92.31832993 6.95391212 92.84375 8.015625 C93.20941071 8.73451401 93.57507141 9.45340302 93.95181274 10.19407654 C95.14356265 12.54160548 96.32167835 14.89570656 97.5 17.25 C98.31647628 18.86357862 99.13402506 20.47661499 99.95263672 22.08911133 C101.57040531 25.27664082 103.18434531 28.46606254 104.79589844 31.65673828 C107.89298958 37.77547478 111.08636651 43.84258974 114.29882812 49.90136719 C118.32727096 57.53619284 122.15456301 65.27200449 126 73 C126.69121125 74.38844379 127.38245451 75.77687163 128.07373047 77.1652832 C128.41570465 77.85213699 128.75767883 78.53899078 129.11001587 79.24665833 C139.06477701 99.29108496 139.06477701 99.29108496 149.39404297 119.14379883 C153.46703185 126.80588275 157.30471623 134.5837115 161.16699219 142.35351562 C165.29507778 150.63908563 169.5591244 158.84313195 173.8984375 167.01953125 C176.34768927 171.63896454 178.70529646 176.30189644 181 181 C183.56764991 178.43235009 184.67677007 175.51140589 186.09765625 172.23046875 C186.40361725 171.53509003 186.70957825 170.8397113 187.02481079 170.1232605 C187.69056303 168.60969895 188.35436009 167.09527626 189.01644897 165.58010864 C190.80980237 161.47821235 192.61941979 157.38351647 194.4296875 153.2890625 C194.80524277 152.43919266 195.18079803 151.58932281 195.56773376 150.71369934 C199.52031287 141.78962576 203.5956784 132.92338053 207.6875 124.0625 C212.74225005 113.10720962 217.76399901 102.14000791 222.6875 91.125 C223.45755371 89.40240967 223.45755371 89.40240967 224.24316406 87.64501953 C225.28271978 85.31859706 226.3221066 82.99209912 227.36132812 80.66552734 C230.07401274 74.59537004 232.79536546 68.52913063 235.52481079 62.4664917 C236.12063156 61.14192756 236.71554212 59.81695351 237.30941772 58.49151611 C241.01294292 50.22675953 244.8790491 42.06612665 249 34 C252 35 252 35 253.40356445 37.33129883 C253.885271 38.36279053 254.36697754 39.39428223 254.86328125 40.45703125 C255.41330811 41.61831543 255.96333496 42.77959961 256.5300293 43.97607422 C256.96501236 44.91238678 256.96501236 44.91238678 257.40878296 45.86761475 C258.95293407 49.19077519 260.53009686 52.49828742 262.1015625 55.80859375 C262.4242662 56.49097107 262.74696991 57.17334839 263.07945251 57.87640381 C266.34288103 64.76347611 269.75570202 71.57041706 273.1875 78.375 C278.80680159 89.55457528 284.26200342 100.80252821 289.62597656 112.10644531 C296.27725184 126.11335978 302.99512093 140.0798961 309.97412109 153.92675781 C313.73899295 161.41804242 317.35564517 168.9752136 320.91650391 176.56542969 C321.30757324 177.3959082 321.69864258 178.22638672 322.1015625 179.08203125 C322.44525879 179.81655518 322.78895508 180.5510791 323.14306641 181.30786133 C323.88295354 182.98674134 323.88295354 182.98674134 325 184 C337.34050696 157.84537706 337.34050696 157.84537706 349.5246582 131.61767578 C351.90309512 126.4645841 354.30973673 121.33448868 356.83984375 116.25390625 C357.27111572 115.37919678 357.7023877 114.5044873 358.14672852 113.60327148 C358.93442163 112.01395072 359.73464037 110.43074097 360.55053711 108.85571289 C361.0630603 107.8172522 361.0630603 107.8172522 361.5859375 106.7578125 C361.8854834 106.1714502 362.1850293 105.58508789 362.49365234 104.98095703 C363.92908176 99.36520281 360.90670714 94.17486563 358.5 89.2421875 C357.97208359 88.13632294 357.97208359 88.13632294 357.4335022 87.00811768 C356.2955688 84.62720222 355.14771974 82.25121091 354 79.875 C352.4419969 76.6213725 350.88911934 73.36530617 349.3359375 70.109375 C348.95601654 69.31479889 348.57609558 68.52022278 348.18466187 67.7015686 C344.88266699 60.78579131 341.70251072 53.82021387 338.6015625 46.81201172 C338.1375 45.76424561 338.1375 45.76424561 337.6640625 44.6953125 C337.38594727 44.06270508 337.10783203 43.43009766 336.82128906 42.77832031 C336.0207447 41.04491806 335.11662386 39.36054647 334.2109375 37.6796875 C333 35 333 35 334 32 C345.55234255 31.97685427 357.1046796 31.95907349 368.6570406 31.94818783 C374.02096181 31.9429639 379.38486719 31.9358751 384.7487793 31.92456055 C389.92291101 31.91371432 395.09702746 31.90771946 400.27116966 31.90512276 C402.24757312 31.90327165 404.22397572 31.89965703 406.2003727 31.89426994 C408.9634343 31.88703654 411.72643244 31.88601004 414.48950195 31.88647461 C415.7216468 31.8810817 415.7216468 31.8810817 416.97868347 31.87557983 C420.24744175 31.88154735 422.87639203 31.95879734 426 33 C425.41644209 37.73220574 424.06985756 41.4977659 422.078125 45.8203125 C421.78137375 46.46895767 421.4846225 47.11760284 421.17887878 47.78590393 C420.54043781 49.17860773 419.89866817 50.56978959 419.25387573 51.95956421 C418.23951153 54.14762442 417.23598177 56.34038636 416.23461914 58.53442383 C413.21959422 65.12371977 410.16773644 71.69239858 407.00369263 78.21160889 C405.76533652 80.76353273 404.53937875 83.32134017 403.31311035 85.87908936 C402.4524398 87.65664461 401.5696527 89.42343661 400.68652344 91.18994141 C400.16993164 92.26550293 399.65333984 93.34106445 399.12109375 94.44921875 C398.6614624 95.38080811 398.20183105 96.31239746 397.72827148 97.2722168 C396.31280857 102.57391547 399.52870803 107.34159681 401.765625 112.09375 C402.31863281 113.27324219 402.87164063 114.45273438 403.44140625 115.66796875 C404.0442444 116.94532498 404.64710974 118.22266837 405.25 119.5 C405.87925793 120.83967862 406.5081577 122.17952552 407.13671875 123.51953125 C408.44197431 126.30143455 409.74876323 129.08260966 411.05664062 131.86328125 C413.76316173 137.6206064 416.45088432 143.38668116 419.13873291 149.15274048 C420.58373559 152.25200549 422.03025752 155.35056132 423.4765625 158.44921875 C425.57795533 162.95192479 427.67872294 167.45492186 429.77877808 171.95825195 C430.70505327 173.94441401 431.63157764 175.9304597 432.55810547 177.91650391 C433.75365283 180.47941812 434.94787682 183.04294274 436.14111328 185.60693359 C438.61777357 190.92502473 441.10316412 196.23758935 443.65625 201.51953125 C444.03861816 202.31447998 444.42098633 203.10942871 444.81494141 203.9284668 C445.49275378 205.33295273 446.17674056 206.73448627 446.86865234 208.13208008 C448.46218639 211.43984345 449 213.22509386 449 217 C444.78250781 217.07419134 440.56536189 217.1286204 436.34741211 217.16479492 C434.91277448 217.17987589 433.47818292 217.2003438 432.04370117 217.22631836 C429.98084141 217.26273437 427.91859142 217.27973243 425.85546875 217.29296875 C423.99378052 217.31653442 423.99378052 217.31653442 422.09448242 217.34057617 C419 217 419 217 417.24829102 215.83984375 C415.60250688 213.41413883 414.39374342 210.93631085 413.171875 208.26953125 C412.62660156 207.08931396 412.08132813 205.90909668 411.51953125 204.69311523 C410.92964239 203.3995974 410.33979987 202.10605842 409.75 200.8125 C409.13485126 199.47630449 408.51895273 198.14045393 407.90234375 196.80493164 C406.93461735 194.70845505 405.96749039 192.61171883 405.00280762 190.51383972 C401.37920489 182.63439687 397.68917819 174.78639103 394 166.9375 C392.22246679 163.15348424 390.44637826 159.36880986 388.67578125 155.58154297 C387.53144123 153.13581626 386.38307501 150.69229833 385.23046875 148.25048828 C384.68003906 147.07599121 384.12960937 145.90149414 383.5625 144.69140625 C383.06878906 143.64283447 382.57507813 142.5942627 382.06640625 141.51391602 C381 139 381 139 381 137 C380.34 137 379.68 137 379 137 C378.73227783 137.85384277 378.46455566 138.70768555 378.1887207 139.58740234 C376.98134639 143.05355108 375.55016317 146.28448133 373.98046875 149.6015625 C373.685495 150.22764908 373.39052124 150.85373566 373.08660889 151.49879456 C372.45274944 152.84326196 371.81738009 154.18701838 371.18063354 155.53012085 C369.82988546 158.37933887 368.48644785 161.23198309 367.14259338 164.0844574 C366.45126377 165.55172444 365.75955977 167.01881514 365.06748962 168.48573303 C361.66202425 175.70633668 358.29545201 182.94470305 354.9375 190.1875 C354.17119263 191.83903076 354.17119263 191.83903076 353.3894043 193.52392578 C352.65330933 195.11116455 352.65330933 195.11116455 351.90234375 196.73046875 C351.42265137 197.75188965 350.94295898 198.77331055 350.44873047 199.82568359 C349.42467129 202.06950183 348.44895279 204.33568071 347.50830078 206.61572266 C347.01185059 207.79054199 346.51540039 208.96536133 346.00390625 210.17578125 C345.57021729 211.24352783 345.13652832 212.31127441 344.68969727 213.41137695 C343 216 343 216 340.15234375 217.34741211 C337.1945852 217.95971761 334.57340643 218.25807111 331.55859375 218.265625 C330.56279297 218.26820313 329.56699219 218.27078125 328.54101562 218.2734375 C327.51685547 218.26570312 326.49269531 218.25796875 325.4375 218.25 C324.40947266 218.25773438 323.38144531 218.26546875 322.32226562 218.2734375 C321.32775391 218.27085937 320.33324219 218.26828125 319.30859375 218.265625 C318.40939209 218.26336914 317.51019043 218.26111328 316.58374023 218.25878906 C313.68609802 217.96855938 311.58968541 217.32926536 309 216 C307.37925506 213.52394798 306.09510288 211.20910498 304.8125 208.5625 C303.94154057 206.83977584 303.07043395 205.11712608 302.19921875 203.39453125 C301.45744385 201.90687256 301.45744385 201.90687256 300.70068359 200.38916016 C298.74909242 196.49998579 296.7629897 192.62955306 294.76953125 188.76171875 C294.39411194 188.03323227 294.01869263 187.30474579 293.63189697 186.55418396 C292.85623058 185.04931047 292.08047256 183.54448422 291.30462646 182.03970337 C289.7320909 178.98734732 288.16358855 175.93292681 286.59503174 172.87852478 C282.47998547 164.86646763 278.34970339 156.86268919 274.1875 148.875 C273.72682129 147.9890918 273.26614258 147.10318359 272.79150391 146.19042969 C270.25942858 141.34129325 267.64593177 136.55524072 264.91137695 131.81689453 C264 130 264 130 264 128 C256.41 128.33 248.82 128.66 241 129 C238.39627158 134.53120886 238.39627158 134.53120886 235.796875 140.06445312 C233.00101844 145.98478371 230.08941751 151.84239102 227.15332031 157.69387817 C223.37748057 165.22609344 219.67893767 172.79506825 216 180.375 C215.65338318 181.08802277 215.30676636 181.80104553 214.949646 182.53567505 C210.52406603 191.64726069 206.16453612 200.77357205 202.20703125 210.10107422 C201.03030766 212.85117763 200.13816655 214.86183345 198 217 C193.25415031 218.60468883 188.19833665 218.18424452 183.25 218.1875 C182.28578125 218.19974609 181.3215625 218.21199219 180.328125 218.22460938 C177.54317442 218.23028523 174.78135562 218.13389797 172 218 C171.27232422 218.01111816 170.54464844 218.02223633 169.79492188 218.03369141 C167.318132 217.82245004 166.06289389 217.41528488 164 216 C161.22789137 212.31829322 159.1634013 208.34979182 157.1159668 204.23974609 C155.93605839 201.87166915 154.72223887 199.52328996 153.50195312 197.17578125 C151.20242812 192.73560762 148.93529784 188.27971159 146.67712402 183.81838989 C139.011084 168.67892803 131.29188535 153.58891667 122.97949219 138.79125977 C121.93648138 136.88383945 120.96105371 134.94981977 120 133 C119.81171185 139.66620157 119.64961141 146.33282044 119.5 153 C119.47565887 154.07781738 119.45131775 155.15563477 119.42623901 156.26611328 C119.04338242 174.07446914 118.97016499 191.87543978 119.00390625 209.6875 C119.00565731 210.76429016 119.00740837 211.84108032 119.00921249 212.95050049 C119.02736757 223.93569282 119.05512396 234.9207342 119.11018467 245.9058075 C119.12934436 250.08918276 119.14065816 254.27255626 119.15031242 258.45596313 C119.15683446 260.43138174 119.16702794 262.4067919 119.18103218 264.38217163 C119.20014427 267.10770091 119.20706097 269.83300668 119.21118164 272.55859375 C119.21994072 273.36028992 119.2286998 274.16198608 119.2377243 274.98797607 C119.23099351 278.80419084 119.16593994 281.76818758 117 285 C111.69468708 275.91073765 106.7010831 266.70792288 101.93173218 257.32705688 C93.23682859 240.23681422 84.23011663 223.32685961 74.9921875 206.5234375 C69.3059135 196.17179338 63.77476708 185.75341138 58.375 175.25 C51.50693081 161.89259004 44.29907724 148.77039664 36.84741211 135.73217773 C36.29159077 134.7595763 36.29159077 134.7595763 35.72454071 133.76732635 C34.81638545 132.1782033 33.90819615 130.58909969 33 129 C32.98969254 130.10025009 32.97938507 131.20050018 32.96876526 132.33409119 C32.87120698 142.67928674 32.76849005 153.02441977 32.66066074 163.36951351 C32.60538593 168.68862221 32.55195878 174.00773635 32.50268555 179.3269043 C32.45510906 184.45568867 32.40276896 189.5844039 32.34705925 194.71310616 C32.32660516 196.67439628 32.30789725 198.63570538 32.29092598 200.59702873 C32.26694931 203.33420584 32.23688596 206.071251 32.20532227 208.80834961 C32.1995668 209.62761932 32.19381134 210.44688904 32.18788147 211.29098511 C32.11405216 216.88594784 32.11405216 216.88594784 31 218 C26.38074612 218.25453381 21.75043143 218.18523041 17.125 218.1875 C15.81917969 218.19974609 14.51335937 218.21199219 13.16796875 218.22460938 C11.29431641 218.22750977 11.29431641 218.22750977 9.3828125 218.23046875 C8.23184082 218.23457764 7.08086914 218.23868652 5.89501953 218.24291992 C3 218 3 218 0 216 C-0.29417206 213.11564631 -0.39098728 210.44597346 -0.36076355 207.55929565 C-0.36332682 206.67553949 -0.3658901 205.79178334 -0.36853105 204.88124669 C-0.37349593 201.90225706 -0.3569316 198.92376761 -0.34057617 195.94482422 C-0.33973048 193.81647758 -0.3402039 191.68813006 -0.34190369 189.55978394 C-0.34276734 183.76662267 -0.32508181 177.97364631 -0.30418181 172.18052816 C-0.28547652 166.13200909 -0.28366944 160.08348616 -0.28010559 154.03494263 C-0.27076701 142.57436116 -0.24612874 131.11386515 -0.21605712 119.65332139 C-0.18256945 106.60879517 -0.16604129 93.56426496 -0.15097082 80.51970649 C-0.11958074 53.67975687 -0.06678509 26.83988322 0 0 Z " fill="#2B5C93" transform="translate(328,11)"/>
<path d="M0 0 C0.91269653 -0.00807175 1.82539307 -0.01614349 2.76574707 -0.02445984 C4.71278979 -0.03833683 6.65985721 -0.04904269 8.60693359 -0.05688477 C11.52622463 -0.07382687 14.44430013 -0.11764149 17.36328125 -0.16210938 C33.44397785 -0.29639064 48.34227843 1.14677679 62.09375 10.23828125 C63.16496094 10.91503906 63.16496094 10.91503906 64.2578125 11.60546875 C75.33092477 19.17280802 82.38963067 31.55249204 86.09375 44.23828125 C88.43403379 58.77068863 86.01872286 74.38498117 77.28125 86.55078125 C72.85441756 91.94991538 67.90511 97.31983312 62.09375 101.23828125 C61.43375 101.23828125 60.77375 101.23828125 60.09375 101.23828125 C60.09375 101.89828125 60.09375 102.55828125 60.09375 103.23828125 C60.80821289 103.50979004 61.52267578 103.78129883 62.25878906 104.06103516 C81.21131762 111.9312636 98.32229389 124.31934534 114.35668945 136.9387207 C115.3298196 137.70398952 115.3298196 137.70398952 116.32260895 138.48471832 C117.91320776 139.73562823 119.5035088 140.98691675 121.09375 142.23828125 C121.09798194 141.65775309 121.10221388 141.07722492 121.10657406 140.479105 C121.20978872 126.36662183 121.3184126 112.25418903 121.43308926 98.1417942 C121.48841452 91.31720325 121.54189537 84.49260707 121.59106445 77.66796875 C121.63848452 71.08680749 121.69100441 64.50569989 121.74669075 57.92460251 C121.76713465 55.4087087 121.7858443 52.89280021 121.80282402 50.37688065 C121.826823 46.86399249 121.8568837 43.35120624 121.88842773 39.83837891 C121.8941832 38.788936 121.89993866 37.7394931 121.90586853 36.6582489 C121.91565735 35.70470016 121.92544617 34.75115143 121.93553162 33.76870728 C121.94198417 32.93725 121.94843672 32.10579273 121.9550848 31.24913979 C122.09375 29.23828125 122.09375 29.23828125 123.09375 27.23828125 C128.40668126 25.46730416 134.09631252 26.05363983 139.65625 26.05078125 C140.91373047 26.03853516 142.17121094 26.02628906 143.46679688 26.01367188 C145.26407227 26.01077148 145.26407227 26.01077148 147.09765625 26.0078125 C148.19924072 26.00370361 149.3008252 25.99959473 150.43579102 25.99536133 C153.09375 26.23828125 153.09375 26.23828125 155.09375 28.23828125 C155.34263897 30.71816921 155.34263897 30.71816921 155.34098816 33.90953064 C155.34518265 35.11643555 155.34937714 36.32334045 155.35369873 37.56681824 C155.34821455 38.91165241 155.34253155 40.25648578 155.33666992 41.60131836 C155.33774249 43.01231982 155.33968078 44.42332086 155.34242249 45.83432007 C155.34728211 49.67577003 155.33959812 53.51710432 155.32946944 57.3585403 C155.32069151 61.38262601 155.32244644 65.40670806 155.3228302 69.43080139 C155.32189243 76.19908583 155.31319897 82.96732557 155.29956055 89.7355957 C155.28389092 97.54026165 155.27856045 105.34487842 155.2792961 113.14955896 C155.27997446 121.4723882 155.27301045 129.79519866 155.2638495 138.1180222 C155.261727 140.50633965 155.26100948 142.89465403 155.26061058 145.28297234 C155.25959773 149.05615759 155.25342515 152.82930237 155.24344444 156.60247421 C155.23917981 158.63164098 155.23968668 160.66081606 155.24038696 162.68998718 C155.21533473 169.92833796 154.90463419 177.04383912 154.09375 184.23828125 C149.2558804 184.41242925 144.41986654 184.53885344 139.57958984 184.62280273 C137.93636262 184.65782339 136.29335066 184.70545826 134.65087891 184.76635742 C119.24140678 185.32304448 119.24140678 185.32304448 114.20703125 180.953125 C113.1294516 179.74933547 112.08448299 178.51450039 111.09375 177.23828125 C110.03220703 176.19027344 110.03220703 176.19027344 108.94921875 175.12109375 C108.39878906 174.54101562 107.84835937 173.9609375 107.28125 173.36328125 C102.54457941 168.57142615 97.35529601 164.43523429 92.09375 160.23828125 C90.58748047 158.97177734 90.58748047 158.97177734 89.05078125 157.6796875 C60.94054875 134.31945467 25.36850703 119.98592239 -10.41796875 114.12890625 C-11.52571655 113.94602051 -12.63346436 113.76313477 -13.77478027 113.57470703 C-16.48499174 113.12751118 -19.1954804 112.68207902 -21.90625 112.23828125 C-21.90180878 113.12333344 -21.89736755 114.00838562 -21.89279175 114.92025757 C-21.85276693 123.24896055 -21.82229208 131.57763137 -21.80262566 139.90640831 C-21.79217517 144.18862373 -21.77799303 148.47075989 -21.75537109 152.75292969 C-21.73368762 156.88316251 -21.72169091 161.01331894 -21.71649551 165.14360428 C-21.71279165 166.72171863 -21.7055592 168.29982866 -21.69478989 169.87791061 C-21.68033451 172.08325076 -21.67826952 174.28827267 -21.67919922 176.49365234 C-21.674758 177.75051849 -21.67031677 179.00738464 -21.66574097 180.30233765 C-21.90625 183.23828125 -21.90625 183.23828125 -23.90625 185.23828125 C-26.45654297 185.49707031 -26.45654297 185.49707031 -29.6484375 185.50390625 C-30.79699219 185.50648438 -31.94554688 185.5090625 -33.12890625 185.51171875 C-34.33417969 185.50398437 -35.53945312 185.49625 -36.78125 185.48828125 C-37.97878906 185.49601563 -39.17632812 185.50375 -40.41015625 185.51171875 C-41.56128906 185.50914062 -42.71242188 185.5065625 -43.8984375 185.50390625 C-44.95401855 185.50165039 -46.00959961 185.49939453 -47.09716797 185.49707031 C-49.92379134 185.23666524 -51.44904144 184.56333168 -53.90625 183.23828125 C-53.9293706 169.69563947 -53.94716364 156.15300235 -53.95806217 142.61034489 C-53.96329162 136.32266101 -53.97039039 130.03499059 -53.98168945 123.74731445 C-53.99251614 117.68490402 -53.99852637 111.62250656 -54.00112724 105.5600872 C-54.00298189 103.24151848 -54.00660325 100.92295051 -54.01198006 98.60438728 C-54.01918758 95.36913617 -54.02024106 92.13393942 -54.01977539 88.89868164 C-54.02337067 87.92980011 -54.02696594 86.96091858 -54.03067017 85.962677 C-54.0292955 85.08623032 -54.02792084 84.20978363 -54.02650452 83.30677795 C-54.02742631 82.54076798 -54.0283481 81.77475801 -54.02929783 80.98553562 C-53.90625 79.23828125 -53.90625 79.23828125 -52.90625 78.23828125 C-50.18474809 78.13435781 -47.48779674 78.09466846 -44.765625 78.09643555 C-43.91186783 78.09296112 -43.05811066 78.08948669 -42.17848206 78.08590698 C-40.31671811 78.07853413 -38.45494527 78.07319694 -36.59317017 78.06961632 C-33.64171188 78.06246477 -30.69042121 78.04680531 -27.73901367 78.02827454 C-19.34442535 77.97576323 -10.94992456 77.92788108 -2.55517578 77.91235352 C2.5749409 77.90224102 7.70464244 77.87282569 12.83459473 77.83103371 C14.78646699 77.81875693 16.73839802 77.81359635 18.69030762 77.81583214 C21.43330697 77.8181994 24.17512913 77.79590845 26.91796875 77.76831055 C28.11539955 77.77821266 28.11539955 77.77821266 29.33702087 77.78831482 C34.58102428 77.7022638 38.4537011 76.51663031 43.15461731 74.19230366 C45.09375 73.23828125 45.09375 73.23828125 48.09375 72.23828125 C49.16091704 70.43895546 49.16091704 70.43895546 50.09375 68.23828125 C50.60035156 67.53058594 51.10695313 66.82289062 51.62890625 66.09375 C53.48844923 62.46888088 53.57189605 59.28039941 53.53125 55.30078125 C53.55123047 54.61048828 53.57121094 53.92019531 53.59179688 53.20898438 C53.58691547 48.05910374 52.28939129 45.20809429 49.09375 41.23828125 C41.77645532 34.08728872 34.51673614 32.79642267 24.72265625 32.76171875 C23.75972153 32.74613922 22.7967868 32.73055969 21.80467224 32.71450806 C18.7552053 32.66729334 15.70596497 32.63930394 12.65625 32.61328125 C9.58169819 32.5768023 6.50727536 32.53627925 3.43284607 32.4906311 C1.52542206 32.46337114 -0.38209731 32.4420344 -2.28965759 32.42709351 C-3.57218163 32.41170029 -3.57218163 32.41170029 -4.88061523 32.39599609 C-6.01357277 32.38625259 -6.01357277 32.38625259 -7.16941833 32.37631226 C-8.90625 32.23828125 -8.90625 32.23828125 -9.90625 31.23828125 C-10.00637401 29.03177469 -10.0370618 26.82205739 -10.0390625 24.61328125 C-10.04001923 23.95118652 -10.04097595 23.2890918 -10.04196167 22.60693359 C-10.04264326 21.20475164 -10.04079042 19.80256655 -10.03662109 18.40039062 C-10.03127246 16.24732412 -10.0365667 14.09446623 -10.04296875 11.94140625 C-10.04230796 10.58203079 -10.04102679 9.22265545 -10.0390625 7.86328125 C-10.03793457 6.61804687 -10.03680664 5.3728125 -10.03564453 4.08984375 C-9.76900746 -1.78623357 -4.70942166 0.03943874 0 0 Z " fill="#2A5C93" transform="translate(153.90625,43.76171875)"/>
<path d="M0 0 C0.89874816 0.00092179 1.79749632 0.00184359 2.72347927 0.00279331 C3.75138073 0.00141865 4.77928219 0.00004398 5.83833218 -0.00137234 C6.975527 0.00222294 8.11272182 0.00581821 9.2843771 0.00952244 C10.47445873 0.00937641 11.66454037 0.00923038 12.89068508 0.00907993 C16.16326569 0.00965889 19.43580402 0.01468801 22.70837617 0.02165389 C26.1250196 0.02788815 29.54166379 0.02849128 32.95831203 0.0296793 C39.43232563 0.0327924 45.90632242 0.0410055 52.3803286 0.05102879 C59.74901216 0.06219058 67.11769651 0.06770054 74.48638642 0.07272422 C89.64814464 0.08318813 104.80988712 0.10078717 119.97163296 0.12304783 C121.06129198 3.39202491 121.10092766 5.81280033 121.10444546 9.25195408 C121.10573452 10.45142673 121.10702358 11.65089939 121.10835171 12.8867197 C121.10448452 14.14033298 121.10061733 15.39394627 121.09663296 16.68554783 C121.10050014 17.9430283 121.10436733 19.20050877 121.10835171 20.4960947 C121.10706264 21.6942783 121.10577358 22.89246189 121.10444546 24.12695408 C121.10331753 25.22853855 121.1021896 26.33012302 121.10102749 27.46508884 C120.97163296 30.12304783 120.97163296 30.12304783 119.97163296 32.12304783 C105.12163296 32.12304783 90.27163296 32.12304783 74.97163296 32.12304783 C74.97686977 36.69204929 74.98210659 41.26105076 74.9875021 45.96850681 C75.00403358 61.02403597 75.01515323 76.07956547 75.02344513 91.13510132 C75.0286084 100.26788831 75.03565168 109.40066673 75.04707241 118.53344822 C75.05701831 126.49062657 75.06348616 134.44779871 75.06572145 142.4049831 C75.06702872 146.62090769 75.07011558 150.83681451 75.07736301 155.05273342 C75.08412175 159.01626967 75.08625022 162.97978072 75.08474064 166.94332218 C75.08501703 168.40226789 75.08702303 169.8612144 75.09083843 171.32015514 C75.09577331 173.30351378 75.09403107 175.28688575 75.09188747 177.27024937 C75.09280927 178.3828535 75.09373106 179.49545763 75.09468079 180.64177704 C74.97163296 183.12304783 74.97163296 183.12304783 73.97163296 184.12304783 C71.7651264 184.22317184 69.55540909 184.25385963 67.34663296 184.25586033 C66.68453823 184.25681705 66.0224435 184.25777378 65.3402853 184.2587595 C63.93810335 184.25944109 62.53591825 184.25758825 61.13374233 184.25341892 C58.98067582 184.24807029 56.82781793 184.25336452 54.67475796 184.25976658 C53.31538249 184.25910579 51.95600716 184.25782462 50.59663296 184.25586033 C49.35139858 184.2547324 48.10616421 184.25360447 46.82319546 184.25244236 C43.97163296 184.12304783 43.97163296 184.12304783 42.97163296 183.12304783 C42.87498328 181.17409824 42.84976175 179.22159328 42.85137844 177.27024937 C42.85000378 175.99833744 42.84862911 174.72642551 42.84721279 173.4159708 C42.85075241 171.99337841 42.85438722 170.57078625 42.85810757 169.14819431 C42.85838943 167.66038102 42.85823172 166.17256758 42.85766506 164.68475437 C42.85737705 160.63327783 42.86327429 156.58183063 42.87023902 152.53036094 C42.87647204 148.30092786 42.87707631 144.07149419 42.87826443 139.84205723 C42.8813779 131.82745061 42.8895915 123.81285756 42.89961392 115.79825693 C42.91077457 106.67628099 42.91628538 97.55430441 42.92130935 88.43232334 C42.9317741 69.66255713 42.94937384 50.89280357 42.97163296 32.12304783 C42.41009014 32.12526844 41.84854733 32.12748905 41.26998806 32.12977695 C35.44682861 32.15183089 29.62368095 32.16695488 23.80049038 32.17797947 C21.62470423 32.18302091 19.44892149 32.1898539 17.27314663 32.19848728 C14.15310229 32.21056121 11.03310257 32.21627788 7.91303921 32.22070408 C6.44430103 32.22844601 6.44430103 32.22844601 4.94589138 32.23634434 C4.04503307 32.23641987 3.14417477 32.2364954 2.21601772 32.23657322 C1.41881817 32.23879383 0.62161861 32.24101444 -0.1997385 32.24330235 C-2.02836704 32.12304783 -2.02836704 32.12304783 -3.02836704 31.12304783 C-3.12849106 28.91654127 -3.15917884 26.70682396 -3.16117954 24.49804783 C-3.16213627 23.8359531 -3.16309299 23.17385838 -3.16407871 22.49170017 C-3.16476031 21.08951822 -3.16290746 19.68733312 -3.15873814 18.2851572 C-3.15338951 16.1320907 -3.15868374 13.97923281 -3.16508579 11.82617283 C-3.16442501 10.46679737 -3.16314384 9.10742203 -3.16117954 7.74804783 C-3.16005161 6.50281345 -3.15892368 5.25757908 -3.15776157 3.97461033 C-2.98562538 0.18111846 -2.98562538 0.18111846 0 0 Z " fill="#285A92" transform="translate(8.028367042541504,43.876952171325684)"/>
<path d="M0 0 C5.37034103 2.54978377 8.78668852 6.48340454 11 12 C14.5414276 22.68499298 13.8394253 32.8736683 9 43 C6.77762665 46.40300919 4.93685261 48.79707281 1 50 C-3.13741962 50.62061294 -5.51447156 50.86117591 -9.15625 48.75 C-15.18636197 43.88990975 -17.9336836 38.3541253 -19.75 30.9375 C-20.59147679 21.0501477 -19.59536241 11.91443489 -13 4 C-8.65997273 0.33508808 -5.66521729 -0.89450799 0 0 Z " fill="#2E5E93" transform="translate(296,4)"/>
<path d="M0 0 C0.89874816 0.00092179 1.79749632 0.00184359 2.72347927 0.00279331 C3.75138073 0.00141865 4.77928219 0.00004398 5.83833218 -0.00137234 C6.975527 0.00222294 8.11272182 0.00581821 9.2843771 0.00952244 C10.47445873 0.00937641 11.66454037 0.00923038 12.89068508 0.00907993 C16.16326569 0.00965889 19.43580402 0.01468801 22.70837617 0.02165389 C26.1250196 0.02788815 29.54166379 0.02849128 32.95831203 0.0296793 C39.43232563 0.0327924 45.90632242 0.0410055 52.3803286 0.05102879 C59.74901216 0.06219058 67.11769651 0.06770054 74.48638642 0.07272422 C89.64814464 0.08318813 104.80988712 0.10078717 119.97163296 0.12304783 C121.07074844 3.42039429 121.08557856 5.85263528 121.06928921 9.32226658 C121.06445522 11.13501072 121.06445522 11.13501072 121.05952358 12.98437595 C121.04695522 14.87833103 121.04695522 14.87833103 121.03413296 16.81054783 C121.02962124 18.08478611 121.02510952 19.35902439 121.02046108 20.67187595 C121.00866169 23.82231347 120.99219893 26.97265731 120.97163296 30.12304783 C120.31163296 30.45304783 119.65163296 30.78304783 118.97163296 31.12304783 C118.97163296 21.22304783 118.97163296 11.32304783 118.97163296 1.12304783 C104.76753529 1.23121321 90.56348389 1.34333421 76.35947323 1.46238708 C69.76373836 1.51751267 63.16799898 1.5709159 56.57221889 1.62036228 C50.20499829 1.66815895 43.83782977 1.72050688 37.47067165 1.77598858 C35.0434693 1.79634293 32.61625271 1.81506716 30.18902493 1.83212185 C26.78512849 1.85631953 23.38132917 1.88635247 19.97749233 1.91772556 C18.47776379 1.92635876 18.47776379 1.92635876 16.94773769 1.93516636 C7.89827393 1.43283267 7.89827393 1.43283267 -0.02836704 4.12304783 C-0.18661963 6.12086909 -0.27955876 8.12393617 -0.34477329 10.12695408 C-0.3828812 11.22080418 -0.42098911 12.31465427 -0.46025181 13.44165134 C-0.50335484 14.84213718 -0.54645786 16.24262302 -0.59086704 17.68554783 C-0.73524204 22.11992283 -0.87961704 26.55429783 -1.02836704 31.12304783 C14.15163296 31.12304783 29.33163296 31.12304783 44.97163296 31.12304783 C45.69832571 35.48320436 46.09564407 39.01422456 46.09188747 43.34933567 C46.09326214 44.57763599 46.0946368 45.80593632 46.09605312 47.07145786 C46.09251473 48.41922117 46.08887993 49.76698423 46.08515835 51.11474705 C46.08487606 52.5441853 46.08503503 53.9736237 46.08560085 55.40306187 C46.08588719 59.27243065 46.08001688 63.14176829 46.0730269 67.01112986 C46.06676614 71.05902383 46.0661874 75.10691856 46.06500149 79.15481663 C46.0618962 86.81509741 46.05369362 94.47536387 46.043652 102.13563836 C46.03246596 110.85870508 46.02697413 119.5817725 46.02195656 128.30484462 C46.01151033 146.24425402 45.99372446 164.18364925 45.97163296 182.12304783 C54.55163296 182.45304783 63.13163296 182.78304783 71.97163296 183.12304783 C71.97971981 181.27555439 71.98780666 179.42806095 71.99613857 177.52458286 C72.07349659 160.14568537 72.1610907 142.76686634 72.25916004 125.38807297 C72.30931885 116.45266215 72.35576135 107.51726065 72.39350796 98.58178806 C72.42641062 90.79520536 72.46623219 83.00869434 72.51442301 75.22219068 C72.53970524 71.09787503 72.56148138 66.97360704 72.57497692 62.84923458 C72.58778172 58.96933353 72.60981882 55.08959578 72.63901615 51.20978451 C72.64810435 49.78394934 72.65378505 48.35808787 72.6558466 46.93222523 C72.6591602 44.98893441 72.67579754 43.0456798 72.69316006 41.10246372 C72.70145619 39.46950745 72.70145619 39.46950745 72.70991993 37.80356216 C72.97163296 35.12304783 72.97163296 35.12304783 74.97163296 32.12304783 C74.99496049 51.79372961 75.01261141 71.46440859 75.02344513 91.13510132 C75.0286084 100.26788831 75.03565168 109.40066673 75.04707241 118.53344822 C75.05701831 126.49062657 75.06348616 134.44779871 75.06572145 142.4049831 C75.06702872 146.62090769 75.07011558 150.83681451 75.07736301 155.05273342 C75.08412175 159.01626967 75.08625022 162.97978072 75.08474064 166.94332218 C75.08501703 168.40226789 75.08702303 169.8612144 75.09083843 171.32015514 C75.09577331 173.30351378 75.09403107 175.28688575 75.09188747 177.27024937 C75.09280927 178.3828535 75.09373106 179.49545763 75.09468079 180.64177704 C74.97163296 183.12304783 74.97163296 183.12304783 73.97163296 184.12304783 C71.7651264 184.22317184 69.55540909 184.25385963 67.34663296 184.25586033 C66.68453823 184.25681705 66.0224435 184.25777378 65.3402853 184.2587595 C63.93810335 184.25944109 62.53591825 184.25758825 61.13374233 184.25341892 C58.98067582 184.24807029 56.82781793 184.25336452 54.67475796 184.25976658 C53.31538249 184.25910579 51.95600716 184.25782462 50.59663296 184.25586033 C49.35139858 184.2547324 48.10616421 184.25360447 46.82319546 184.25244236 C43.97163296 184.12304783 43.97163296 184.12304783 42.97163296 183.12304783 C42.87498328 181.17409824 42.84976175 179.22159328 42.85137844 177.27024937 C42.85000378 175.99833744 42.84862911 174.72642551 42.84721279 173.4159708 C42.85075241 171.99337841 42.85438722 170.57078625 42.85810757 169.14819431 C42.85838943 167.66038102 42.85823172 166.17256758 42.85766506 164.68475437 C42.85737705 160.63327783 42.86327429 156.58183063 42.87023902 152.53036094 C42.87647204 148.30092786 42.87707631 144.07149419 42.87826443 139.84205723 C42.8813779 131.82745061 42.8895915 123.81285756 42.89961392 115.79825693 C42.91077457 106.67628099 42.91628538 97.55430441 42.92130935 88.43232334 C42.9317741 69.66255713 42.94937384 50.89280357 42.97163296 32.12304783 C42.41009014 32.12526844 41.84854733 32.12748905 41.26998806 32.12977695 C35.44682861 32.15183089 29.62368095 32.16695488 23.80049038 32.17797947 C21.62470423 32.18302091 19.44892149 32.1898539 17.27314663 32.19848728 C14.15310229 32.21056121 11.03310257 32.21627788 7.91303921 32.22070408 C6.44430103 32.22844601 6.44430103 32.22844601 4.94589138 32.23634434 C4.04503307 32.23641987 3.14417477 32.2364954 2.21601772 32.23657322 C1.41881817 32.23879383 0.62161861 32.24101444 -0.1997385 32.24330235 C-2.02836704 32.12304783 -2.02836704 32.12304783 -3.02836704 31.12304783 C-3.12849106 28.91654127 -3.15917884 26.70682396 -3.16117954 24.49804783 C-3.16213627 23.8359531 -3.16309299 23.17385838 -3.16407871 22.49170017 C-3.16476031 21.08951822 -3.16290746 19.68733312 -3.15873814 18.2851572 C-3.15338951 16.1320907 -3.15868374 13.97923281 -3.16508579 11.82617283 C-3.16442501 10.46679737 -3.16314384 9.10742203 -3.16117954 7.74804783 C-3.16005161 6.50281345 -3.15892368 5.25757908 -3.15776157 3.97461033 C-2.98562538 0.18111846 -2.98562538 0.18111846 0 0 Z " fill="#3D6286" transform="translate(8.028367042541504,43.876952171325684)"/>
<path d="M0 0 C1.25748047 -0.01224609 2.51496094 -0.02449219 3.81054688 -0.03710938 C5.00873047 -0.03904297 6.20691406 -0.04097656 7.44140625 -0.04296875 C8.54299072 -0.04707764 9.6445752 -0.05118652 10.77954102 -0.05541992 C13.4375 0.1875 13.4375 0.1875 15.4375 2.1875 C15.68359566 4.6981144 15.68359566 4.6981144 15.67800903 7.93276978 C15.68075836 9.15557144 15.68350769 10.37837311 15.68634033 11.63822937 C15.6792616 13.00051977 15.67199197 14.36280919 15.66455078 15.72509766 C15.66398688 17.15394584 15.66430282 18.58279461 15.66543579 20.01164246 C15.66601112 23.89781417 15.65422775 27.78386316 15.64028788 31.67000628 C15.62781048 35.72859613 15.62661239 39.7871886 15.62423706 43.84579468 C15.61801347 51.53456179 15.60159081 59.22327224 15.58153808 66.91201437 C15.55920637 75.66400235 15.54819253 84.415993 15.53814721 93.16800237 C15.51722531 111.17453374 15.48203232 129.18101232 15.4375 147.1875 C15.1075 147.1875 14.7775 147.1875 14.4375 147.1875 C14.42719254 146.06189667 14.41688507 144.93629333 14.40626526 143.77658081 C14.30656041 132.93036434 14.20372414 122.08418101 14.09816074 111.23801994 C14.04404014 105.66796979 13.99085693 100.09791471 13.94018555 94.52783203 C13.66226545 64.07443407 13.17279824 33.63335827 12.4375 3.1875 C-1.4225 2.6925 -1.4225 2.6925 -15.5625 2.1875 C-15.8925 40.4675 -16.2225 78.7475 -16.5625 118.1875 C-16.8925 118.1875 -17.2225 118.1875 -17.5625 118.1875 C-17.58583923 103.22790767 -17.60348422 88.26831675 -17.61431217 73.3087101 C-17.61947295 66.36302711 -17.6265115 59.41735542 -17.63793945 52.47167969 C-17.64895439 45.77384663 -17.65477771 39.07602775 -17.65737724 32.37818527 C-17.65923075 29.81761871 -17.66284994 27.25705282 -17.66823006 24.69649124 C-17.67544589 21.12137693 -17.67649071 17.54631177 -17.67602539 13.97119141 C-17.67962067 12.90304703 -17.68321594 11.83490265 -17.68692017 10.73439026 C-17.6855455 9.76401321 -17.68417084 8.79363617 -17.68275452 7.79385376 C-17.68367631 6.9476478 -17.6845981 6.10144184 -17.68554783 5.22959328 C-17.5625 3.1875 -17.5625 3.1875 -16.5625 1.1875 C-11.24956874 -0.58347709 -5.55993748 0.00285858 0 0 Z " fill="#94B0C9" transform="translate(293.5625,69.8125)"/>
<path d="M0 0 C0.33 0 0.66 0 1 0 C1.02332753 19.67068178 1.04097845 39.34136076 1.05181217 59.01205349 C1.05697544 68.14484048 1.06401872 77.2776189 1.07543945 86.41040039 C1.08538535 94.36757874 1.0918532 102.32475088 1.09408849 110.28193527 C1.09539576 114.49785986 1.09848262 118.71376668 1.10573006 122.92968559 C1.11248879 126.89322184 1.11461726 130.85673289 1.11310768 134.82027435 C1.11338408 136.27922006 1.11539007 137.73816657 1.11920547 139.19710732 C1.12414036 141.18046595 1.12239811 143.16383792 1.12025452 145.14720154 C1.12117631 146.25980567 1.1220981 147.3724098 1.12304783 148.51872921 C1 151 1 151 0 152 C-2.21855264 152.08783542 -4.43988496 152.10694609 -6.66015625 152.09765625 C-7.65685585 152.09553383 -7.65685585 152.09553383 -8.6736908 152.09336853 C-10.80333899 152.08775518 -12.93288339 152.07520054 -15.0625 152.0625 C-16.50325369 152.05748671 -17.94400903 152.05292351 -19.38476562 152.04882812 C-22.92321102 152.03778145 -26.46159539 152.02050792 -30 152 C-30 151.67 -30 151.34 -30 151 C-20.76 151 -11.52 151 -2 151 C-1.97494385 146.53235107 -1.9498877 142.06470215 -1.92407227 137.46166992 C-1.84073661 122.72942711 -1.7520829 107.99721989 -1.66066074 93.26502514 C-1.60534182 84.3296102 -1.55186198 75.39419127 -1.50268555 66.45874023 C-1.45982743 58.67218297 -1.4135453 50.88565494 -1.36312145 43.09914285 C-1.33653365 38.97483351 -1.31168087 34.85052992 -1.29092598 30.72618675 C-1.2713474 26.84633497 -1.24719993 22.96653878 -1.21950912 19.08673668 C-1.21014517 17.66089385 -1.20246753 16.23503882 -1.19658089 14.8091774 C-1.18830871 12.8658991 -1.17344305 10.92265216 -1.15821838 8.97941589 C-1.15176583 7.89077838 -1.14531328 6.80214087 -1.1386652 5.68051434 C-1 3 -1 3 0 0 Z " fill="#45678A" transform="translate(82,76)"/>
<path d="M0 0 C0.89874816 0.00092179 1.79749632 0.00184359 2.72347927 0.00279331 C3.75138073 0.00141865 4.77928219 0.00004398 5.83833218 -0.00137234 C6.975527 0.00222294 8.11272182 0.00581821 9.2843771 0.00952244 C10.47445873 0.00937641 11.66454037 0.00923038 12.89068508 0.00907993 C16.16326569 0.00965889 19.43580402 0.01468801 22.70837617 0.02165389 C26.1250196 0.02788815 29.54166379 0.02849128 32.95831203 0.0296793 C39.43232563 0.0327924 45.90632242 0.0410055 52.3803286 0.05102879 C59.74901216 0.06219058 67.11769651 0.06770054 74.48638642 0.07272422 C89.64814464 0.08318813 104.80988712 0.10078717 119.97163296 0.12304783 C121.07074844 3.42039429 121.08557856 5.85263528 121.06928921 9.32226658 C121.06445522 11.13501072 121.06445522 11.13501072 121.05952358 12.98437595 C121.04695522 14.87833103 121.04695522 14.87833103 121.03413296 16.81054783 C121.02962124 18.08478611 121.02510952 19.35902439 121.02046108 20.67187595 C121.00866169 23.82231347 120.99219893 26.97265731 120.97163296 30.12304783 C120.31163296 30.45304783 119.65163296 30.78304783 118.97163296 31.12304783 C118.97163296 21.22304783 118.97163296 11.32304783 118.97163296 1.12304783 C104.76753529 1.23121321 90.56348389 1.34333421 76.35947323 1.46238708 C69.76373836 1.51751267 63.16799898 1.5709159 56.57221889 1.62036228 C50.20499829 1.66815895 43.83782977 1.72050688 37.47067165 1.77598858 C35.0434693 1.79634293 32.61625271 1.81506716 30.18902493 1.83212185 C26.78512849 1.85631953 23.38132917 1.88635247 19.97749233 1.91772556 C18.47776379 1.92635876 18.47776379 1.92635876 16.94773769 1.93516636 C7.89827393 1.43283267 7.89827393 1.43283267 -0.02836704 4.12304783 C-0.18661963 6.12086909 -0.27955876 8.12393617 -0.34477329 10.12695408 C-0.3828812 11.22080418 -0.42098911 12.31465427 -0.46025181 13.44165134 C-0.50335484 14.84213718 -0.54645786 16.24262302 -0.59086704 17.68554783 C-0.73524204 22.11992283 -0.87961704 26.55429783 -1.02836704 31.12304783 C13.49163296 31.12304783 28.01163296 31.12304783 42.97163296 31.12304783 C42.97163296 31.45304783 42.97163296 31.78304783 42.97163296 32.12304783 C36.58126065 32.14831845 30.19090113 32.165881 23.80049038 32.17797947 C21.62470423 32.18302091 19.44892149 32.1898539 17.27314663 32.19848728 C14.15310229 32.21056121 11.03310257 32.21627788 7.91303921 32.22070408 C6.44430103 32.22844601 6.44430103 32.22844601 4.94589138 32.23634434 C4.04503307 32.23641987 3.14417477 32.2364954 2.21601772 32.23657322 C1.41881817 32.23879383 0.62161861 32.24101444 -0.1997385 32.24330235 C-2.02836704 32.12304783 -2.02836704 32.12304783 -3.02836704 31.12304783 C-3.12849106 28.91654127 -3.15917884 26.70682396 -3.16117954 24.49804783 C-3.16213627 23.8359531 -3.16309299 23.17385838 -3.16407871 22.49170017 C-3.16476031 21.08951822 -3.16290746 19.68733312 -3.15873814 18.2851572 C-3.15338951 16.1320907 -3.15868374 13.97923281 -3.16508579 11.82617283 C-3.16442501 10.46679737 -3.16314384 9.10742203 -3.16117954 7.74804783 C-3.16005161 6.50281345 -3.15892368 5.25757908 -3.15776157 3.97461033 C-2.98562538 0.18111846 -2.98562538 0.18111846 0 0 Z " fill="#6283A5" transform="translate(8.028367042541504,43.876952171325684)"/>
<path d="M0 0 C0.33 0 0.66 0 1 0 C1 77.22 1 154.44 1 234 C0.67 234 0.34 234 0 234 C0 156.78 0 79.56 0 0 Z " fill="#DFDFDF" transform="translate(0,69)"/>
<path d="M0 0 C0.82390732 0.00202423 1.64781464 0.00404846 2.49668884 0.00613403 C3.36008377 0.00438171 4.2234787 0.00262939 5.11303711 0.00082397 C7.98264037 -0.00359665 10.85218255 -0.0006553 13.7217865 0.00271606 C15.70857251 0.00204296 17.69535844 0.00107288 19.68214417 -0.00018311 C23.85356935 -0.00166046 28.02497317 0.00049523 32.19639587 0.00515747 C37.54887791 0.01084738 42.90130972 0.00758067 48.2537899 0.00158501 C52.35951619 -0.00202589 56.46523054 -0.00087945 60.57095718 0.0017128 C62.54456717 0.00238098 64.51817823 0.00155741 66.49178696 -0.00076675 C69.24996057 -0.0033011 72.00805257 0.00055877 74.76622009 0.00613403 C75.58607895 0.0041098 76.40593781 0.00208557 77.25064087 0 C80.51388668 0.01224392 83.14272461 0.09615377 86.260849 1.13552856 C85.930849 1.79552856 85.600849 2.45552856 85.260849 3.13552856 C56.550849 3.13552856 27.840849 3.13552856 -1.739151 3.13552856 C-2.069151 3.79552856 -2.399151 4.45552856 -2.739151 5.13552856 C-3.729151 5.13552856 -4.719151 5.13552856 -5.739151 5.13552856 C-6.301651 3.19802856 -6.301651 3.19802856 -6.739151 1.13552856 C-4.92312913 -0.6804933 -2.41731772 0.00913852 0 0 Z " fill="#849CBC" transform="translate(667.7391510009766,42.864471435546875)"/>
<path d="M0 0 C2.95987945 2.95987945 4.40595059 5.17428142 6 9 C5.67 9.99 5.34 10.98 5 12 C4.01 11.67 3.02 11.34 2 11 C1.67 59.18 1.34 107.36 1 157 C0.67 157 0.34 157 0 157 C0 105.19 0 53.38 0 0 Z " fill="#2F5A84" transform="translate(415,11)"/>
<path d="M0 0 C0.33 0 0.66 0 1 0 C1 35.97 1 71.94 1 109 C-10.55 109 -22.1 109 -34 109 C-34 108.67 -34 108.34 -34 108 C-23.11 107.67 -12.22 107.34 -1 107 C-0.67 71.69 -0.34 36.38 0 0 Z " fill="#385E86" transform="translate(307,119)"/>
<path d="M0 0 C0.33 0 0.66 0 1 0 C1.04627979 9.22269206 1.08184694 18.44534434 1.10362434 27.66812706 C1.11407483 31.95034248 1.12825697 36.23247864 1.15087891 40.51464844 C1.17256238 44.64488126 1.18455909 48.77503769 1.18975449 52.90532303 C1.19345835 54.48343738 1.2006908 56.06154741 1.21146011 57.63962936 C1.22591549 59.84496951 1.22798048 62.04999142 1.22705078 64.25537109 C1.231492 65.51223724 1.23593323 66.76910339 1.24050903 68.0640564 C1 71 1 71 -1 73 C-3.58203125 73.25878906 -3.58203125 73.25878906 -6.8125 73.265625 C-7.97007813 73.26820313 -9.12765625 73.27078125 -10.3203125 73.2734375 C-11.53460938 73.26570313 -12.74890625 73.25796875 -14 73.25 C-15.21429688 73.25773437 -16.42859375 73.26546875 -17.6796875 73.2734375 C-19.41605469 73.26957031 -19.41605469 73.26957031 -21.1875 73.265625 C-22.78658203 73.26224121 -22.78658203 73.26224121 -24.41796875 73.25878906 C-27 73 -27 73 -29 71 C-19.76 70.67 -10.52 70.34 -1 70 C-0.67 46.9 -0.34 23.8 0 0 Z " fill="#6D8DB0" transform="translate(131,156)"/>
<path d="M0 0 C0.66 0 1.32 0 2 0 C2.049467 5.48094366 2.0857514 10.96175713 2.10986328 16.44287109 C2.11991593 18.30715194 2.13356005 20.17141703 2.15087891 22.03564453 C2.17515953 24.71651091 2.18649047 27.39716866 2.1953125 30.078125 C2.20563507 30.91055725 2.21595764 31.7429895 2.22659302 32.60064697 C2.22797609 39.74669236 2.22797609 39.74669236 0 43 C-2 40 -2 40 -2 37 C-1.34 37 -0.68 37 0 37 C0 24.79 0 12.58 0 0 Z " fill="#7795B7" transform="translate(445,253)"/>
<path d="M0 0 C3.875 0.875 3.875 0.875 5 2 C9.43151088 2.25458617 13.87454869 2.18523227 18.3125 2.1875 C19.56224609 2.19974609 20.81199219 2.21199219 22.09960938 2.22460938 C23.30037109 2.22654297 24.50113281 2.22847656 25.73828125 2.23046875 C26.84212158 2.23457764 27.94596191 2.23868652 29.08325195 2.24291992 C31.93774344 2.00518501 33.58285783 1.48095355 36 0 C35.67 1.32 35.34 2.64 35 4 C30.12468152 5.4101289 25.28802523 5.18418551 20.25 5.1875 C18.80367188 5.20586914 18.80367188 5.20586914 17.328125 5.22460938 C11.55767243 5.23636981 6.47244571 4.915356 1 3 C0.67 2.01 0.34 1.02 0 0 Z " fill="#5B7CA1" transform="translate(491,224)"/>
<path d="M0 0 C0.66 0 1.32 0 2 0 C7.859375 11.71875 7.859375 11.71875 8.91601562 13.8515625 C9.65452191 15.31526865 10.41464831 16.76821913 11.19335938 18.2109375 C11.56783203 18.91476563 11.94230469 19.61859375 12.328125 20.34375 C12.67262695 20.97474609 13.01712891 21.60574219 13.37207031 22.25585938 C14 24 14 24 13 27 C12.34 27 11.68 27 11 27 C10.34 24.03 9.68 21.06 9 18 C8.34 18 7.68 18 7 18 C6.34 15.69 5.68 13.38 5 11 C4.34 11 3.68 11 3 11 C3 10.01 3 9.02 3 8 C2.34 8 1.68 8 1 8 C-0.35439668 5.29120665 -0.06501451 2.99066732 0 0 Z " fill="#486F95" transform="translate(443,66)"/>
<path d="M0 0 C3 1 3 1 4.16796875 3.28515625 C4.50441406 4.20167969 4.84085938 5.11820313 5.1875 6.0625 C5.53167969 6.98160156 5.87585938 7.90070312 6.23046875 8.84765625 C6.48441406 9.55792969 6.73835937 10.26820312 7 11 C5.68 10.67 4.36 10.34 3 10 C2.67 8.02 2.34 6.04 2 4 C1.34 4 0.68 4 0 4 C0.103125 4.680625 0.20625 5.36125 0.3125 6.0625 C-0.12535682 10.1783541 -2.16741821 13.02149733 -5 16 C-5.66 16 -6.32 16 -7 16 C-5.26017005 10.18738629 -3.1889511 5.16830006 0 0 Z " fill="#567999" transform="translate(577,45)"/>
<path d="M0 0 C-0.33 0.99 -0.66 1.98 -1 3 C-4.03093322 4.18828301 -7.05640234 4.12884659 -10.28125 4.1328125 C-11.79138672 4.13474609 -11.79138672 4.13474609 -13.33203125 4.13671875 C-14.37746094 4.13285156 -15.42289063 4.12898437 -16.5 4.125 C-17.54542969 4.12886719 -18.59085938 4.13273438 -19.66796875 4.13671875 C-20.67472656 4.13542969 -21.68148437 4.13414062 -22.71875 4.1328125 C-23.63591797 4.13168457 -24.55308594 4.13055664 -25.49804688 4.12939453 C-27.81079015 4.00978544 -29.78529551 3.65210743 -32 3 C-32 2.34 -32 1.68 -32 1 C-31.16227051 1.00523682 -30.32454102 1.01047363 -29.46142578 1.01586914 C-26.35661064 1.03290014 -23.25181929 1.04544482 -20.14697266 1.05493164 C-18.14093449 1.06244036 -16.13491798 1.0751447 -14.12890625 1.08789062 C-12.87207031 1.09111328 -11.61523438 1.09433594 -10.3203125 1.09765625 C-9.15773926 1.10289307 -7.99516602 1.10812988 -6.79736328 1.11352539 C-4.16197855 1.00657358 -2.5478003 0 0 0 Z " fill="#6484A5" transform="translate(670,225)"/>
<path d="M0 0 C0.33 0 0.66 0 1 0 C0.45144652 4.571279 -0.41744803 8.67435795 -2 13 C-2.66 13 -3.32 13 -4 13 C-4.1546875 14.36125 -4.1546875 14.36125 -4.3125 15.75 C-5.02194022 19.10371741 -5.85393501 20.42472201 -8 23 C-8.69580267 24.31836295 -9.37224433 25.64791086 -10 27 C-10.66 27 -11.32 27 -12 27 C-10.26460179 21.07570956 -7.55448391 15.6641012 -4.875 10.125 C-4.40707031 9.15046875 -3.93914063 8.1759375 -3.45703125 7.171875 C-2.30785155 4.77970501 -1.15542757 2.38915684 0 0 Z " fill="#4F7194" transform="translate(691,114)"/>
<path d="M0 0 C0.66 0 1.32 0 2 0 C3.56753668 3.07083737 5.09929106 6.1581957 6.625 9.25 C7.07101562 10.12269531 7.51703125 10.99539062 7.9765625 11.89453125 C8.5953125 13.16103516 8.5953125 13.16103516 9.2265625 14.453125 C9.61408691 15.22817383 10.00161133 16.00322266 10.40087891 16.80175781 C11 19 11 19 10.11083984 21.28417969 C9.7442627 21.85040039 9.37768555 22.41662109 9 23 C8.32404685 21.58774074 7.65959941 20.16997095 7 18.75 C6.62875 17.96109375 6.2575 17.1721875 5.875 16.359375 C5 14 5 14 5 10 C4.01 9.67 3.02 9.34 2 9 C0.29466783 5.67908998 0 3.81507216 0 0 Z " fill="#486A8F" transform="translate(730,128)"/>
<path d="M0 0 C3.01559918 3.67406862 5.09995495 7.72571532 7.25 11.9375 C7.62640625 12.64068359 8.0028125 13.34386719 8.390625 14.06835938 C11.06131173 19.30663647 11.06131173 19.30663647 10.734375 23.00390625 C10.49203125 23.66261719 10.2496875 24.32132813 10 25 C7.95233824 22.95233824 7.47617017 21.91358084 6.5625 19.25 C4.552435 13.17264389 4.552435 13.17264389 1 8 C0.95936168 6.33382885 0.957279 4.66611905 1 3 C0.34 3 -0.32 3 -1 3 C-0.67 2.01 -0.34 1.02 0 0 Z " fill="#486E93" transform="translate(609,108)"/>
<path d="M0 0 C1.47906892 -0.02689216 2.95827483 -0.04634621 4.4375 -0.0625 C5.26121094 -0.07410156 6.08492187 -0.08570313 6.93359375 -0.09765625 C9 0 9 0 10 1 C12.32817964 1.36760731 14.6618385 1.70241581 17 2 C17 3.32 17 4.64 17 6 C13.99353048 7.30230734 12.90644333 6.96485975 9.765625 5.78515625 C8.60546875 5.21667969 7.4453125 4.64820313 6.25 4.0625 C4.49429688 3.21365234 4.49429688 3.21365234 2.703125 2.34765625 C1.81109375 1.90292969 0.9190625 1.45820313 0 1 C0 0.67 0 0.34 0 0 Z " fill="#39608F" transform="translate(191,170)"/>
<path d="M0 0 C2.23376612 2.85315849 4.10374106 5.7415791 5.8125 8.9375 C6.27269531 9.77152344 6.73289062 10.60554688 7.20703125 11.46484375 C8.21525174 14.68816935 7.52696688 16.06675435 6 19 C5.22678118 16.01758453 4.58803797 13.02419525 4 10 C2.02 10 0.04 10 -2 10 C-2 9.34 -2 8.68 -2 8 C-1.34 8 -0.68 8 0 8 C-0.2784375 6.2984375 -0.2784375 6.2984375 -0.5625 4.5625 C-0.7790625 2.7990625 -0.7790625 2.7990625 -1 1 C-0.67 0.67 -0.34 0.34 0 0 Z " fill="#39638E" transform="translate(460,98)"/>
<path d="M0 0 C5.37352147 5.37352147 5.49733754 14.01083417 6.08203125 21.1796875 C6 24 6 24 4 27 C3.87882813 25.91460937 3.75765625 24.82921875 3.6328125 23.7109375 C3.46387531 22.26558596 3.29458575 20.82027558 3.125 19.375 C3.04636719 18.66214844 2.96773437 17.94929688 2.88671875 17.21484375 C2.3726781 12.90481065 1.45159477 9.11285185 0 5 C-0.125 2.125 -0.125 2.125 0 0 Z " fill="#55799A" transform="translate(235,77)"/>
<path d="M0 0 C2.79643618 3.42455876 4.74004289 7.18129771 6.6875 11.125 C7.16799805 12.07439453 7.16799805 12.07439453 7.65820312 13.04296875 C10 17.74653518 10 17.74653518 10 20 C7 19 7 19 5.71875 16.92578125 C5.3165625 16.06339844 4.914375 15.20101562 4.5 14.3125 C4.07460938 13.41015625 3.64921875 12.5078125 3.2109375 11.578125 C2.81132813 10.72734375 2.41171875 9.8765625 2 9 C1.38125 7.865625 0.7625 6.73125 0.125 5.5625 C-1 3 -1 3 0 0 Z " fill="#4C6F95" transform="translate(586,61)"/>
<path d="M0 0 C0.66 0.99 1.32 1.98 2 3 C1.54625 3.845625 1.0925 4.69125 0.625 5.5625 C-1.00254781 9.0053896 -1.98294661 12.33860781 -3 16 C-3.62469505 17.35350594 -4.2716331 18.69934483 -5 20 C-5.99 20 -6.98 20 -8 20 C-5.83836487 13.06001352 -3.1063786 6.56882431 0 0 Z " fill="#527598" transform="translate(545,114)"/>
<path d="M0 0 C3.26954202 0.56371414 4.82575883 1.49962266 7 4 C6.67 4.99 6.34 5.98 6 7 C6.66 7 7.32 7 8 7 C8 7.66 8 8.32 8 9 C4.9168649 7.80100302 1.93720508 6.52299523 -1 5 C-0.67 3.35 -0.34 1.7 0 0 Z " fill="#275A8F" transform="translate(216,178)"/>
<path d="M0 0 C2 2 2 2 2 6 C1.01 6.66 0.02 7.32 -1 8 C-2.15383364 10.5494633 -3.02673681 13.14014815 -3.9375 15.78515625 C-4.288125 16.51605469 -4.63875 17.24695313 -5 18 C-5.99 18.33 -6.98 18.66 -8 19 C-6.60121198 14.53202662 -4.86369228 10.36177921 -2.875 6.125 C-2.33617187 4.97257813 -1.79734375 3.82015625 -1.2421875 2.6328125 C-0.62730469 1.32957031 -0.62730469 1.32957031 0 0 Z " fill="#55769C" transform="translate(672,154)"/>
<path d="M0 0 C0.99 0 1.98 0 3 0 C3.66 2.64 4.32 5.28 5 8 C6.32 8 7.64 8 9 8 C9 10.31 9 12.62 9 15 C8.34 15 7.68 15 7 15 C5.82823482 12.87767021 4.66245215 10.75242209 3.5 8.625 C3.16613281 8.02171875 2.83226562 7.4184375 2.48828125 6.796875 C0 2.2265625 0 2.2265625 0 0 Z " fill="#477095" transform="translate(451,148)"/>
<path d="M0 0 C3.3 0.33 6.6 0.66 10 1 C10.33 2.32 10.66 3.64 11 5 C11.99 5 12.98 5 14 5 C13.67 5.99 13.34 6.98 13 8 C12.31292969 7.65066406 11.62585938 7.30132812 10.91796875 6.94140625 C10.01691406 6.48636719 9.11585938 6.03132813 8.1875 5.5625 C7.29417969 5.11003906 6.40085938 4.65757813 5.48046875 4.19140625 C2.96000522 2.9168395 2.96000522 2.9168395 0 2 C0 1.34 0 0.68 0 0 Z " fill="#3D6289" transform="translate(189,75)"/>
<path d="M0 0 C0.33 0 0.66 0 1 0 C1 13.2 1 26.4 1 40 C0.67 40 0.34 40 0 40 C0 26.8 0 13.6 0 0 Z " fill="#DFDFDF" transform="translate(0,0)"/>
<path d="M0 0 C2.86979527 2.70857081 4.47187995 5.33251188 6 9 C5.67 9.99 5.34 10.98 5 12 C2.5 11.0625 2.5 11.0625 0 9 C-0.45787911 5.96183742 -0.28780586 3.05074215 0 0 Z " fill="#42658B" transform="translate(415,11)"/>
<path d="M0 0 C0.66 0 1.32 0 2 0 C3.00484204 1.95585325 4.00373805 3.91476237 5 5.875 C5.556875 6.96554688 6.11375 8.05609375 6.6875 9.1796875 C8 12 8 12 8 14 C6.125 13.8125 6.125 13.8125 4 13 C2.12320013 9.62176024 1.78150417 6.82367701 2 3 C1.34 3 0.68 3 0 3 C0 2.01 0 1.02 0 0 Z " fill="#55799B" transform="translate(600,91)"/>
<path d="M0 0 C0.66 0 1.32 0 2 0 C1.98839844 0.81984375 1.97679687 1.6396875 1.96484375 2.484375 C1.95582031 3.56203125 1.94679688 4.6396875 1.9375 5.75 C1.92589844 6.81734375 1.91429687 7.8846875 1.90234375 8.984375 C1.87028615 11.88917895 1.87028615 11.88917895 2.62890625 14.140625 C3.13096888 16.65622302 2.29948254 17.85967582 1 20 C-0.73899822 13.29243545 -2.25467791 6.76403372 0 0 Z " fill="#5D7B9C" transform="translate(277,21)"/>
<path d="M0 0 C3.4375 2 3.4375 2 6 4 C5.01 4.495 5.01 4.495 4 5 C3.67 5.66 3.34 6.32 3 7 C1 6 1 6 0 3 C-3.63 3 -7.26 3 -11 3 C-6.53591875 -0.34806094 -5.37122451 -0.64825123 0 0 Z " fill="#517295" transform="translate(296,4)"/>
<path d="M0 0 C4.04420651 1.77945087 7.46078487 4.39529673 11 7 C10.01 7.66 9.02 8.32 8 9 C7.1646875 8.01 7.1646875 8.01 6.3125 7 C3.52802421 4.59180472 2.53411046 4.90699709 -1 5 C-1.66 4.01 -2.32 3.02 -3 2 C-2.01 2 -1.02 2 0 2 C0 1.34 0 0.68 0 0 Z " fill="#3B6692" transform="translate(254,171)"/>
<path d="M0 0 C2.95051654 3.45922629 5.25855517 6.7838704 7 11 C6.67 11.99 6.34 12.98 6 14 C5.34 14 4.68 14 4 14 C-0.59225513 4.58997722 -0.59225513 4.58997722 0 0 Z " fill="#4C719A" transform="translate(468,114)"/>
<path d="M0 0 C2 3 2 3 1.75 6 C1 9 1 9 -1 12 C-1.99 12 -2.98 12 -4 12 C-3.33501617 7.61110675 -1.81242323 4.0188515 0 0 Z " fill="#466D93" transform="translate(532,143)"/>
<path d="M0 0 C2.475 0.99 2.475 0.99 5 2 C5 2.99 5 3.98 5 5 C6.32 5.66 7.64 6.32 9 7 C7.68 8.32 6.36 9.64 5 11 C3.35 7.37 1.7 3.74 0 0 Z " fill="#3C6693" transform="translate(599,153)"/>
<path d="M0 0 C1.60226148 4.00565371 0.47694566 7.08609399 -1 11 C-1.99 11.33 -2.98 11.66 -4 12 C-4 12.99 -4 13.98 -4 15 C-4.66 15 -5.32 15 -6 15 C-4.36041242 9.76727367 -2.61047965 4.84803364 0 0 Z " fill="#4F7197" transform="translate(520,170)"/>
<path d="M0 0 C0.66 0 1.32 0 2 0 C2 0.66 2 1.32 2 2 C3.32 2.33 4.64 2.66 6 3 C6.6875 5.3125 6.6875 5.3125 7 8 C5.51953125 9.66796875 5.51953125 9.66796875 4 11 C3.32880451 9.5437455 2.66318193 8.08492133 2 6.625 C1.62875 5.81289062 1.2575 5.00078125 0.875 4.1640625 C0 2 0 2 0 0 Z " fill="#486B93" transform="translate(719,169)"/>
<path d="M0 0 C0.99 0 1.98 0 3 0 C2.46968862 4.5076467 0.74778884 7.41954788 -2 11 C-2.66 11 -3.32 11 -4 11 C-3.52269162 9.5410574 -3.04308958 8.08286504 -2.5625 6.625 C-2.29566406 5.81289063 -2.02882813 5.00078125 -1.75390625 4.1640625 C-1 2 -1 2 0 0 Z " fill="#4F7295" transform="translate(574,50)"/>
<path d="M0 0 C1.76227952 2.64341928 3.19871008 5.23077235 4.625 8.0625 C5.07101562 8.94035156 5.51703125 9.81820312 5.9765625 10.72265625 C7 13 7 13 7 15 C5.109375 14.80078125 5.109375 14.80078125 3 14 C1.953125 11.85546875 1.953125 11.85546875 1.25 9.1875 C1.00765625 8.31480469 0.7653125 7.44210938 0.515625 6.54296875 C0 4 0 4 0 0 Z " fill="#4B6D92" transform="translate(762,194)"/>
<path d="M0 0 C-1.59890486 5.19644079 -3.74138003 10.06612142 -6 15 C-6.33 15 -6.66 15 -7 15 C-7 13.02 -7 11.04 -7 9 C-6.34 9 -5.68 9 -5 9 C-4.87625 7.700625 -4.7525 6.40125 -4.625 5.0625 C-4.4140625 2.84765625 -4.4140625 2.84765625 -4 1 C-2 0 -2 0 0 0 Z " fill="#4E7297" transform="translate(734,90)"/>
<path d="M0 0 C-2.89066059 9.59453303 -2.89066059 9.59453303 -6 13 C-6.2120464 8.54702569 -5.72718916 5.12606298 -4 1 C-2 0 -2 0 0 0 Z " fill="#53769A" transform="translate(561,154)"/>
<path d="M0 0 C0.66 0 1.32 0 2 0 C2.8638129 1.45264038 3.71580454 2.9123163 4.5625 4.375 C5.27599609 5.59316406 5.27599609 5.59316406 6.00390625 6.8359375 C6.33261719 7.55007812 6.66132813 8.26421875 7 9 C6.67 9.66 6.34 10.32 6 11 C5.34 11 4.68 11 4 11 C3.731875 10.195625 3.46375 9.39125 3.1875 8.5625 C2.795625 7.716875 2.40375 6.87125 2 6 C1.01 5.67 0.02 5.34 -1 5 C-0.67 3.35 -0.34 1.7 0 0 Z " fill="#456A94" transform="translate(386,120)"/>
<path d="M0 0 C1.73629666 2.60444499 3.27424374 5.18082047 4.75 7.9375 C5.21921875 8.79214844 5.6884375 9.64679688 6.171875 10.52734375 C7 13 7 13 6.140625 15.31640625 C5.76421875 15.87199219 5.3878125 16.42757812 5 17 C4.67 14.69 4.34 12.38 4 10 C3.34 10 2.68 10 2 10 C0.68373308 6.38026598 0 3.90432869 0 0 Z " fill="#4E6D93" transform="translate(741,149)"/>
<path d="M0 0 C2.91024202 2.50058918 4.16791164 5.19655377 5.6875 8.6875 C6.12449219 9.68136719 6.56148438 10.67523438 7.01171875 11.69921875 C7.33785156 12.45847656 7.66398437 13.21773437 8 14 C7.34 14 6.68 14 6 14 C3.46093936 11.38626111 2.07743148 9.87110419 1.75 6.1875 C1.8325 5.465625 1.915 4.74375 2 4 C1.34 4 0.68 4 0 4 C0 2.68 0 1.36 0 0 Z " fill="#4C6C8D" transform="translate(329,12)"/>
<path d="M0 0 C0.66 0 1.32 0 2 0 C2.33 2.31 2.66 4.62 3 7 C2.34 7 1.68 7 1 7 C1.33 9.97 1.66 12.94 2 16 C1.34 16.33 0.68 16.66 0 17 C0 11.39 0 5.78 0 0 Z " fill="#2E5989" transform="translate(329,16)"/>
<path d="M0 0 C-1.15585285 3.91211733 -2.35534962 6.8745041 -5 10 C-5.33 8.68 -5.66 7.36 -6 6 C-5.34 6 -4.68 6 -4 6 C-4.33 4.35 -4.66 2.7 -5 1 C-3 0 -3 0 0 0 Z " fill="#446E94" transform="translate(694,176)"/>
<path d="M0 0 C6.40353322 -0.2361959 11.84629161 0.176679 18 2 C17.67 2.66 17.34 3.32 17 4 C11.39 3.01 5.78 2.02 0 1 C0 0.67 0 0.34 0 0 Z " fill="#466992" transform="translate(150,158)"/>
<path d="M0 0 C0.66 0 1.32 0 2 0 C2.89429374 1.5725165 3.76487427 3.15853741 4.625 4.75 C5.35589844 6.07257812 5.35589844 6.07257812 6.1015625 7.421875 C7 10 7 10 6.1484375 12.328125 C5.76945312 12.87984375 5.39046875 13.4315625 5 14 C5 12.35 5 10.7 5 9 C4.01 8.67 3.02 8.34 2 8 C0.5522078 5.10441559 0 3.25811062 0 0 Z " fill="#476A8F" transform="translate(432,45)"/>
<path d="M0 0 C2.97069541 2.54631035 4.4775751 5.42230149 6 9 C5.67 9.66 5.34 10.32 5 11 C3.0625 10.3125 3.0625 10.3125 1 9 C0.3125 6.5625 0.3125 6.5625 0 4 C-0.33 3.01 -0.66 2.02 -1 1 C-0.67 0.67 -0.34 0.34 0 0 Z " fill="#52779E" transform="translate(424,28)"/>
<path d="M0 0 C0.928125 0.2784375 0.928125 0.2784375 1.875 0.5625 C4.04160178 1.23686176 4.04160178 1.23686176 6 0 C6 1.98 6 3.96 6 6 C5.01 6.33 4.02 6.66 3 7 C0 2.25 0 2.25 0 0 Z " fill="#446893" transform="translate(439,284)"/>
<path d="M0 0 C5 2 5 2 5.92578125 3.9453125 C6.28385417 5.96354167 6.64192708 7.98177083 7 10 C6.01 10.495 6.01 10.495 5 11 C3.35 7.37 1.7 3.74 0 0 Z " fill="#43658A" transform="translate(623,199)"/>
<path d="M0 0 C0.88336837 2.4667645 1.1312406 3.63859372 0.22265625 6.140625 C-0.16019531 6.83671875 -0.54304687 7.5328125 -0.9375 8.25 C-1.31777344 8.95640625 -1.69804688 9.6628125 -2.08984375 10.390625 C-2.39019531 10.92171875 -2.69054687 11.4528125 -3 12 C-3.66 11.67 -4.32 11.34 -5 11 C-4.55123384 9.35153231 -4.09069512 7.70626545 -3.625 6.0625 C-3.36976563 5.14597656 -3.11453125 4.22945312 -2.8515625 3.28515625 C-2 1 -2 1 0 0 Z " fill="#547699" transform="translate(567,138)"/>
<path d="M0 0 C0.33 0.66 0.66 1.32 1 2 C2.11375 2.185625 2.11375 2.185625 3.25 2.375 C6.64239274 3.14599835 8.42466207 4.71898641 11 7 C10.34 7.66 9.68 8.32 9 9 C5.7 6.69 2.4 4.38 -1 2 C-0.67 1.34 -0.34 0.68 0 0 Z " fill="#46698F" transform="translate(230,189)"/>
<path d="M0 0 C0.66 0 1.32 0 2 0 C1.34580901 5.06998019 -0.8546409 9.41990777 -3 14 C-3.33 14 -3.66 14 -4 14 C-4 12.02 -4 10.04 -4 8 C-3.34 8 -2.68 8 -2 8 C-2 6.35 -2 4.7 -2 3 C-1.34 3 -0.68 3 0 3 C0 2.01 0 1.02 0 0 Z " fill="#517092" transform="translate(743,65)"/>
<path d="M0 0 C0.66 0 1.32 0 2 0 C1.39254603 4.85963179 -0.72758967 8.7405518 -3 13 C-3.93045933 10.44855176 -4.08564091 9.25993522 -3.22265625 6.640625 C-2.83980469 5.85171875 -2.45695313 5.0628125 -2.0625 4.25 C-1.68222656 3.45078125 -1.30195312 2.6515625 -0.91015625 1.828125 C-0.60980469 1.22484375 -0.30945313 0.6215625 0 0 Z " fill="#4E7093" transform="translate(749,52)"/>
<path d="M0 0 C0.66 0 1.32 0 2 0 C2.67154933 1.28913487 3.33708859 2.58140204 4 3.875 C4.37125 4.59429687 4.7425 5.31359375 5.125 6.0546875 C6 8 6 8 6 10 C3.13367003 8.94901234 2.16993357 8.33137046 0.75 5.5625 C0 3 0 3 0 0 Z " fill="#517398" transform="translate(495,168)"/>
<path d="M0 0 C2.64465038 3.1254959 3.84414715 6.08788267 5 10 C4.34 10.66 3.68 11.32 3 12 C1.50859979 8.37802806 0.2125738 4.72433382 -1 1 C-0.67 0.67 -0.34 0.34 0 0 Z " fill="#466B91" transform="translate(757,184)"/>
<path d="M0 0 C0.99 0 1.98 0 3 0 C3 0.66 3 1.32 3 2 C2.34 2 1.68 2 1 2 C1 2.66 1 3.32 1 4 C2.32 4.66 3.64 5.32 5 6 C2.69 6 0.38 6 -2 6 C-1.125 1.125 -1.125 1.125 0 0 Z " fill="#50749D" transform="translate(213,143)"/>
<path d="M0 0 C1.1171875 1.703125 1.1171875 1.703125 2 4 C1.3203125 6.359375 1.3203125 6.359375 0.125 8.75 C-0.26429688 9.54921875 -0.65359375 10.3484375 -1.0546875 11.171875 C-1.36664062 11.77515625 -1.67859375 12.3784375 -2 13 C-2.66 12.34 -3.32 11.68 -4 11 C-4 10.01 -4 9.02 -4 8 C-3.34 8 -2.68 8 -2 8 C-1.7834375 7.13375 -1.7834375 7.13375 -1.5625 6.25 C-1.04166667 4.16666667 -0.52083333 2.08333333 0 0 Z " fill="#4C6F94" transform="translate(737,77)"/>
<path d="M0 0 C4.62 0 9.24 0 14 0 C14 0.33 14 0.66 14 1 C13.04287109 1.07347656 13.04287109 1.07347656 12.06640625 1.1484375 C11.24011719 1.22320312 10.41382813 1.29796875 9.5625 1.375 C8.73878906 1.44460937 7.91507813 1.51421875 7.06640625 1.5859375 C6.38449219 1.72257812 5.70257812 1.85921875 5 2 C4.67 2.66 4.34 3.32 4 4 C3.01 4 2.02 4 1 4 C0.67 2.68 0.34 1.36 0 0 Z " fill="#416387" transform="translate(661,44)"/>
<path d="M0 0 C2.97 0.99 5.94 1.98 9 3 C9 4.65 9 6.3 9 8 C7.68388323 7.04663979 6.37221039 6.08714226 5.0625 5.125 C4.33160156 4.59132812 3.60070312 4.05765625 2.84765625 3.5078125 C1 2 1 2 0 0 Z " fill="#42688F" transform="translate(253,209)"/>
<path d="M0 0 C0.99 0 1.98 0 3 0 C3.33 1.32 3.66 2.64 4 4 C4.66 3.67 5.32 3.34 6 3 C5.625 5.4375 5.625 5.4375 5 8 C4.01 8.495 4.01 8.495 3 9 C2.01 6.03 1.02 3.06 0 0 Z " fill="#426992" transform="translate(727,186)"/>
<path d="M0 0 C0.66 0 1.32 0 2 0 C2.69710731 1.28650706 3.38242876 2.57940665 4.0625 3.875 C4.63677734 4.95394531 4.63677734 4.95394531 5.22265625 6.0546875 C5.47917969 6.69664062 5.73570312 7.33859375 6 8 C5.67 8.66 5.34 9.32 5 10 C4.34 10 3.68 10 3 10 C0 3.375 0 3.375 0 0 Z " fill="#4A6F94" transform="translate(479,137)"/>
<path d="M0 0 C1.1171875 1.734375 1.1171875 1.734375 2 4 C1.3203125 6.140625 1.3203125 6.140625 0.125 8.25 C-0.26429688 8.95640625 -0.65359375 9.6628125 -1.0546875 10.390625 C-1.36664062 10.92171875 -1.67859375 11.4528125 -2 12 C-2.66 11.67 -3.32 11.34 -4 11 C-2.7874262 7.27566618 -1.49140021 3.62197194 0 0 Z " fill="#52749A" transform="translate(550,103)"/>
<path d="M0 0 C2.64465038 3.1254959 3.84414715 6.08788267 5 10 C4.01 10.33 3.02 10.66 2 11 C0.80712589 7.12315913 0 4.08378077 0 0 Z " fill="#53769D" transform="translate(337,26)"/>
<path d="M0 0 C0.66 0 1.32 0 2 0 C1.39301257 4.12751449 -0.03810791 7.3321148 -2 11 C-2.66 10.01 -3.32 9.02 -4 8 C-3.34 8 -2.68 8 -2 8 C-1.855625 6.865625 -1.71125 5.73125 -1.5625 4.5625 C-1 1 -1 1 0 0 Z " fill="#527899" transform="translate(673,216)"/>
<path d="M0 0 C2.83374881 3.20336822 3.5205537 5.78087253 4 10 C0.77686187 7.19275066 -0.64998321 5.31687378 -1 1 C-0.67 0.67 -0.34 0.34 0 0 Z " fill="#45688E" transform="translate(586,61)"/>
<path d="M0 0 C2.49361571 1.20381448 4.68143083 2.45428722 7 4 C7 4.66 7 5.32 7 6 C6.34 6 5.68 6 5 6 C4.67 6.66 4.34 7.32 4 8 C0 2.25 0 2.25 0 0 Z " fill="#456797" transform="translate(217,56)"/>
<path d="M0 0 C2.4294516 3.6441774 2.16179575 5.71241272 2 10 C1.01 10.495 1.01 10.495 0 11 C-0.99 8.69 -1.98 6.38 -3 4 C-2.34 4 -1.68 4 -1 4 C-0.67 2.68 -0.34 1.36 0 0 Z " fill="#3C648E" transform="translate(483,200)"/>
<path d="M0 0 C3.875 1.75 3.875 1.75 5 4 C5.039992 5.99960012 5.04346799 8.00047242 5 10 C0 3.40909091 0 3.40909091 0 0 Z " fill="#577B9B" transform="translate(362,139)"/>
<path d="M0 0 C0.8353125 0.556875 0.8353125 0.556875 1.6875 1.125 C0.6875 2.125 0.6875 2.125 -2.375 2.1875 C-3.344375 2.166875 -4.31375 2.14625 -5.3125 2.125 C-5.3125 2.785 -5.3125 3.445 -5.3125 4.125 C-6.3025 4.125 -7.2925 4.125 -8.3125 4.125 C-7.3125 1.125 -7.3125 1.125 -5 -0.1875 C-2.3125 -0.875 -2.3125 -0.875 0 0 Z " fill="#496A92" transform="translate(197.3125,119.875)"/>
<path d="M0 0 C1.5625 1.125 1.5625 1.125 3 3 C2.6875 6.1875 2.6875 6.1875 2 9 C-0.15377564 6.37801226 -1.40072174 4.35595828 -2 1 C-1.34 0.67 -0.68 0.34 0 0 Z " fill="#456A90" transform="translate(690,101)"/>
<path d="M0 0 C3 1 3 1 3.94921875 2.84765625 C4.19285156 3.57855469 4.43648437 4.30945313 4.6875 5.0625 C4.93886719 5.79597656 5.19023438 6.52945313 5.44921875 7.28515625 C5.63097656 7.85105469 5.81273437 8.41695312 6 9 C5.34 9.66 4.68 10.32 4 11 C3.32880451 9.5437455 2.66318193 8.08492133 2 6.625 C1.62875 5.81289062 1.2575 5.00078125 0.875 4.1640625 C0 2 0 2 0 0 Z " fill="#517595" transform="translate(676,76)"/>
<path d="M0 0 C4.42857143 5.14285714 4.42857143 5.14285714 5 9 C1.125 7.125 1.125 7.125 0 6 C-0.04080783 4.00041636 -0.04254356 1.99954746 0 0 Z " fill="#516F96" transform="translate(347,46)"/>
<path d="M0 0 C4 1 4 1 5.1875 2.875 C5.83464059 4.56752155 6.42698864 6.28096593 7 8 C6.01 8 5.02 8 4 8 C2.68 5.36 1.36 2.72 0 0 Z " fill="#436C95" transform="translate(486,216)"/>
<path d="M0 0 C0.66 0.33 1.32 0.66 2 1 C0.02 5.455 0.02 5.455 -2 10 C-2.66 10 -3.32 10 -4 10 C-3.34 7.36 -2.68 4.72 -2 2 C-1.34 2 -0.68 2 0 2 C0 1.34 0 0.68 0 0 Z " fill="#496C94" transform="translate(534,207)"/>
<path d="M0 0 C2.64 0 5.28 0 8 0 C7.67 0.99 7.34 1.98 7 3 C7.66 3 8.32 3 9 3 C9 3.66 9 4.32 9 5 C5.54074837 3.7508258 2.85306797 2.32472205 0 0 Z " fill="#44688C" transform="translate(215,182)"/>
<path d="M0 0 C0.66 0.99 1.32 1.98 2 3 C1.34 4.32 0.68 5.64 0 7 C-0.99 7 -1.98 7 -3 7 C-1.125 1.125 -1.125 1.125 0 0 Z " fill="#436A93" transform="translate(554,96)"/>
<path d="M0 0 C0.99 0 1.98 0 3 0 C4.09658936 3.28976808 3.79953138 4.71303767 3 8 C1.10786631 5.61426621 -0.02391783 3.92824652 -1 1 C-0.67 0.67 -0.34 0.34 0 0 Z " fill="#3F6596" transform="translate(427,259)"/>
<path d="M0 0 C2.64465038 3.1254959 3.84414715 6.08788267 5 10 C2 9 2 9 0.8125 6.6875 C0 4 0 4 0 0 Z " fill="#5A7B9E" transform="translate(636,163)"/>
<path d="M0 0 C0.99 0.33 1.98 0.66 3 1 C1.125 6.75 1.125 6.75 0 9 C-0.66 9 -1.32 9 -2 9 C-1.34 6.03 -0.68 3.06 0 0 Z " fill="#4C7299" transform="translate(698,160)"/>
<path d="M0 0 C0.66 0 1.32 0 2 0 C0.84414715 3.91211733 -0.35534962 6.8745041 -3 10 C-3 8.35 -3 6.7 -3 5 C-2.34 5 -1.68 5 -1 5 C-0.67 3.35 -0.34 1.7 0 0 Z " fill="#55779C" transform="translate(544,186)"/>
<path d="M0 0 C0.66 0 1.32 0 2 0 C5 5.75 5 5.75 5 8 C3.0625 7.375 3.0625 7.375 1 6 C0.25 2.875 0.25 2.875 0 0 Z " fill="#4E7199" transform="translate(723,113)"/>
<path d="M0 0 C2.15377564 2.62198774 3.40072174 4.64404172 4 8 C1 7 1 7 -1 4 C-0.625 1.8125 -0.625 1.8125 0 0 Z " fill="#4B6F8F" transform="translate(460,98)"/>
<path d="M0 0 C2.76262553 0.3810518 3.84143894 0.83597132 5.8125 2.875 C6.204375 3.57625 6.59625 4.2775 7 5 C6.67 5.99 6.34 6.98 6 8 C3.87961365 5.38485683 1.86908256 2.80362384 0 0 Z " fill="#42658D" transform="translate(202,83)"/>
<path d="M0 0 C2.475 0.99 2.475 0.99 5 2 C4.67 3.65 4.34 5.3 4 7 C2.10786631 4.61426621 0.97608217 2.92824652 0 0 Z " fill="#436995" transform="translate(402,215)"/>
<path d="M0 0 C0.66 0 1.32 0 2 0 C0.25 5.75 0.25 5.75 -2 8 C-2 4.23312136 -1.76462683 3.08809695 0 0 Z " fill="#3F648A" transform="translate(538,198)"/>
<path d="M0 0 C1.32 1.65 2.64 3.3 4 5 C3.67 5.66 3.34 6.32 3 7 C1.02 5.35 -0.96 3.7 -3 2 C-2.01 1.34 -1.02 0.68 0 0 Z " fill="#446891" transform="translate(243,197)"/>
<path d="M0 0 C2.88437779 1.29299694 4.87219421 2.65941363 7 5 C6.01 5.33 5.02 5.66 4 6 C2.62437146 4.71034824 1.29233607 3.37310707 0 2 C0 1.34 0 0.68 0 0 Z " fill="#587A9B" transform="translate(258,174)"/>
<path d="M0 0 C2.475 0.99 2.475 0.99 5 2 C4.67 3.65 4.34 5.3 4 7 C2.10786631 4.61426621 0.97608217 2.92824652 0 0 Z " fill="#486C92" transform="translate(599,153)"/>
</svg>
